<svg xmlns="http://www.w3.org/2000/svg" width="1500" height="500" viewBox="0 0 1500 500"><title>Haus / Social Fabric</title><desc>Pink threads weave through an open ink fabric.</desc><defs><linearGradient id="pink"><stop stop-color="#f2a8cd"/><stop offset="1" stop-color="#f8d4e5"/></linearGradient></defs><rect width="1500" height="500" fill="#ffffff"/><path d="M145 92C510 28 875 160 1355 92" fill="none" stroke="#191919" stroke-width="1.2" stroke-linecap="round" stroke-linejoin="round" opacity="0.8"/><path d="M145 113C510 49 875 181 1355 113" fill="none" stroke="#191919" stroke-width="1.2" stroke-linecap="round" stroke-linejoin="round" opacity="0.8"/><path d="M145 134C510 70 875 202 1355 134" fill="none" stroke="#191919" stroke-width="1.2" stroke-linecap="round" stroke-linejoin="round" opacity="0.8"/><path d="M145 155C510 91 875 223 1355 155" fill="none" stroke="#191919" stroke-width="1.2" stroke-linecap="round" stroke-linejoin="round" opacity="0.8"/><path d="M145 176C510 112 875 244 1355 176" fill="none" stroke="#191919" stroke-width="1.2" stroke-linecap="round" stroke-linejoin="round" opacity="0.8"/><path d="M145 197C510 133 875 265 1355 197" fill="none" stroke="#191919" stroke-width="1.2" stroke-linecap="round" stroke-linejoin="round" opacity="0.8"/><path d="M145 218C510 154 875 286 1355 218" fill="none" stroke="#191919" stroke-width="1.2" stroke-linecap="round" stroke-linejoin="round" opacity="0.8"/><path d="M145 239C510 175 875 307 1355 239" fill="none" stroke="#191919" stroke-width="1.2" stroke-linecap="round" stroke-linejoin="round" opacity="0.8"/><path d="M145 260C510 196 875 328 1355 260" fill="none" stroke="#191919" stroke-width="1.2" stroke-linecap="round" stroke-linejoin="round" opacity="0.8"/><path d="M145 281C510 217 875 349 1355 281" fill="none" stroke="#191919" stroke-width="1.2" stroke-linecap="round" stroke-linejoin="round" opacity="0.8"/><path d="M145 302C510 238 875 370 1355 302" fill="none" stroke="#191919" stroke-width="1.2" stroke-linecap="round" stroke-linejoin="round" opacity="0.8"/><path d="M145 323C510 259 875 391 1355 323" fill="none" stroke="#191919" stroke-width="1.2" stroke-linecap="round" stroke-linejoin="round" opacity="0.8"/><path d="M145 344C510 280 875 412 1355 344" fill="none" stroke="#191919" stroke-width="1.2" stroke-linecap="round" stroke-linejoin="round" opacity="0.8"/><path d="M145 365C510 301 875 433 1355 365" fill="none" stroke="#191919" stroke-width="1.2" stroke-linecap="round" stroke-linejoin="round" opacity="0.8"/><path d="M145 386C510 322 875 454 1355 386" fill="none" stroke="#191919" stroke-width="1.2" stroke-linecap="round" stroke-linejoin="round" opacity="0.8"/><path d="M145 407C510 343 875 475 1355 407" fill="none" stroke="#191919" stroke-width="1.2" stroke-linecap="round" stroke-linejoin="round" opacity="0.8"/><path d="M170 68C250 188 88 310 185 438" fill="none" stroke="#191919" stroke-width="1" stroke-linecap="round" stroke-linejoin="round" opacity="0.8"/><path d="M207 68C287 188 125 310 222 438" fill="none" stroke="#191919" stroke-width="1" stroke-linecap="round" stroke-linejoin="round" opacity="0.8"/><path d="M244 68C324 188 162 310 259 438" fill="none" stroke="#191919" stroke-width="1" stroke-linecap="round" stroke-linejoin="round" opacity="0.8"/><path d="M281 68C361 188 199 310 296 438" fill="none" stroke="#191919" stroke-width="1" stroke-linecap="round" stroke-linejoin="round" opacity="0.8"/><path d="M318 68C398 188 236 310 333 438" fill="none" stroke="#191919" stroke-width="1" stroke-linecap="round" stroke-linejoin="round" opacity="0.8"/><path d="M355 68C435 188 273 310 370 438" fill="none" stroke="#191919" stroke-width="1" stroke-linecap="round" stroke-linejoin="round" opacity="0.8"/><path d="M392 68C472 188 310 310 407 438" fill="none" stroke="#191919" stroke-width="1" stroke-linecap="round" stroke-linejoin="round" opacity="0.8"/><path d="M429 68C509 188 347 310 444 438" fill="none" stroke="#191919" stroke-width="1" stroke-linecap="round" stroke-linejoin="round" opacity="0.8"/><path d="M466 68C546 188 384 310 481 438" fill="none" stroke="#191919" stroke-width="1" stroke-linecap="round" stroke-linejoin="round" opacity="0.8"/><path d="M503 68C583 188 421 310 518 438" fill="none" stroke="#191919" stroke-width="1" stroke-linecap="round" stroke-linejoin="round" opacity="0.8"/><path d="M540 68C620 188 458 310 555 438" fill="none" stroke="#191919" stroke-width="1" stroke-linecap="round" stroke-linejoin="round" opacity="0.8"/><path d="M577 68C657 188 495 310 592 438" fill="none" stroke="#191919" stroke-width="1" stroke-linecap="round" stroke-linejoin="round" opacity="0.8"/><path d="M614 68C694 188 532 310 629 438" fill="none" stroke="#191919" stroke-width="1" stroke-linecap="round" stroke-linejoin="round" opacity="0.8"/><path d="M651 68C731 188 569 310 666 438" fill="none" stroke="#f2a8cd" stroke-width="2.4" stroke-linecap="round" stroke-linejoin="round" opacity="0.8"/><path d="M688 68C768 188 606 310 703 438" fill="none" stroke="#f2a8cd" stroke-width="2.4" stroke-linecap="round" stroke-linejoin="round" opacity="0.8"/><path d="M725 68C805 188 643 310 740 438" fill="none" stroke="#f2a8cd" stroke-width="2.4" stroke-linecap="round" stroke-linejoin="round" opacity="0.8"/><path d="M762 68C842 188 680 310 777 438" fill="none" stroke="#f2a8cd" stroke-width="2.4" stroke-linecap="round" stroke-linejoin="round" opacity="0.8"/><path d="M799 68C879 188 717 310 814 438" fill="none" stroke="#f2a8cd" stroke-width="2.4" stroke-linecap="round" stroke-linejoin="round" opacity="0.8"/><path d="M836 68C916 188 754 310 851 438" fill="none" stroke="#f2a8cd" stroke-width="2.4" stroke-linecap="round" stroke-linejoin="round" opacity="0.8"/><path d="M873 68C953 188 791 310 888 438" fill="none" stroke="#f2a8cd" stroke-width="2.4" stroke-linecap="round" stroke-linejoin="round" opacity="0.8"/><path d="M910 68C990 188 828 310 925 438" fill="none" stroke="#191919" stroke-width="1" stroke-linecap="round" stroke-linejoin="round" opacity="0.8"/><path d="M947 68C1027 188 865 310 962 438" fill="none" stroke="#191919" stroke-width="1" stroke-linecap="round" stroke-linejoin="round" opacity="0.8"/><path d="M984 68C1064 188 902 310 999 438" fill="none" stroke="#191919" stroke-width="1" stroke-linecap="round" stroke-linejoin="round" opacity="0.8"/><path d="M1021 68C1101 188 939 310 1036 438" fill="none" stroke="#191919" stroke-width="1" stroke-linecap="round" stroke-linejoin="round" opacity="0.8"/><path d="M1058 68C1138 188 976 310 1073 438" fill="none" stroke="#191919" stroke-width="1" stroke-linecap="round" stroke-linejoin="round" opacity="0.8"/><path d="M1095 68C1175 188 1013 310 1110 438" fill="none" stroke="#191919" stroke-width="1" stroke-linecap="round" stroke-linejoin="round" opacity="0.8"/><path d="M1132 68C1212 188 1050 310 1147 438" fill="none" stroke="#191919" stroke-width="1" stroke-linecap="round" stroke-linejoin="round" opacity="0.8"/><path d="M1169 68C1249 188 1087 310 1184 438" fill="none" stroke="#191919" stroke-width="1" stroke-linecap="round" stroke-linejoin="round" opacity="0.8"/><path d="M1206 68C1286 188 1124 310 1221 438" fill="none" stroke="#191919" stroke-width="1" stroke-linecap="round" stroke-linejoin="round" opacity="0.8"/><path d="M1243 68C1323 188 1161 310 1258 438" fill="none" stroke="#191919" stroke-width="1" stroke-linecap="round" stroke-linejoin="round" opacity="0.8"/><path d="M1280 68C1360 188 1198 310 1295 438" fill="none" stroke="#191919" stroke-width="1" stroke-linecap="round" stroke-linejoin="round" opacity="0.8"/><path d="M1317 68C1397 188 1235 310 1332 438" fill="none" stroke="#191919" stroke-width="1" stroke-linecap="round" stroke-linejoin="round" opacity="0.8"/></svg>