<svg xmlns="http://www.w3.org/2000/svg" width="1500" height="500" viewBox="0 0 1500 500" role="img" aria-label="HAUS — Daydream"><title>HAUS — Daydream</title><defs>
 <linearGradient id="dream-bg" x1="0" y1="0" x2=".1" y2="1"><stop stop-color="#a2a0a9"/><stop offset=".33" stop-color="#d5becf"/><stop offset=".62" stop-color="#efb1d1"/><stop offset="1" stop-color="#d998be"/></linearGradient>
 <radialGradient id="dream-light"><stop stop-color="#fff5fb" stop-opacity=".9"/><stop offset="1" stop-color="#fff5fb" stop-opacity="0"/></radialGradient>
 <linearGradient id="dream-logo" x2=".3" y2="1"><stop stop-color="#fffdfa"/><stop offset="1" stop-color="#f6eaf4"/></linearGradient></defs><path d="M0 0H1500V500H0Z" fill="url(#dream-bg)"/><ellipse cx="964" cy="137" rx="346" ry="233" fill="url(#dream-light)"/><path d="M-100 265C210 110 322 310 606 217S980 -1 1217 142S1512 210 1620 160" stroke="#f9f1f6" stroke-width="1.2" opacity="0.7" fill="none"/><path d="M-100 279C210 124 322 324 606 231S980 13 1217 156S1512 224 1620 174" stroke="#fff8fc" stroke-width=".65" opacity="0.692" fill="none"/><path d="M-100 293C210 138 322 338 606 245S980 27 1217 170S1512 238 1620 188" stroke="#fff8fc" stroke-width=".65" opacity="0.6839999999999999" fill="none"/><path d="M-100 307C210 152 322 352 606 259S980 41 1217 184S1512 252 1620 202" stroke="#fff8fc" stroke-width=".65" opacity="0.6759999999999999" fill="none"/><path d="M-100 321C210 166 322 366 606 273S980 55 1217 198S1512 266 1620 216" stroke="#fff8fc" stroke-width=".65" opacity="0.6679999999999999" fill="none"/><path d="M-100 335C210 180 322 380 606 287S980 69 1217 212S1512 280 1620 230" stroke="#f9f1f6" stroke-width="1.2" opacity="0.6599999999999999" fill="none"/><path d="M-100 349C210 194 322 394 606 301S980 83 1217 226S1512 294 1620 244" stroke="#fff8fc" stroke-width=".65" opacity="0.6519999999999999" fill="none"/><path d="M-100 363C210 208 322 408 606 315S980 97 1217 240S1512 308 1620 258" stroke="#fff8fc" stroke-width=".65" opacity="0.6439999999999999" fill="none"/><path d="M-100 377C210 222 322 422 606 329S980 111 1217 254S1512 322 1620 272" stroke="#fff8fc" stroke-width=".65" opacity="0.6359999999999999" fill="none"/><path d="M-100 391C210 236 322 436 606 343S980 125 1217 268S1512 336 1620 286" stroke="#fff8fc" stroke-width=".65" opacity="0.6279999999999999" fill="none"/><path d="M-100 405C210 250 322 450 606 357S980 139 1217 282S1512 350 1620 300" stroke="#f9f1f6" stroke-width="1.2" opacity="0.62" fill="none"/><path d="M-100 419C210 264 322 464 606 371S980 153 1217 296S1512 364 1620 314" stroke="#fff8fc" stroke-width=".65" opacity="0.612" fill="none"/><path d="M-100 433C210 278 322 478 606 385S980 167 1217 310S1512 378 1620 328" stroke="#fff8fc" stroke-width=".65" opacity="0.604" fill="none"/><path d="M-100 447C210 292 322 492 606 399S980 181 1217 324S1512 392 1620 342" stroke="#fff8fc" stroke-width=".65" opacity="0.596" fill="none"/><path d="M-100 461C210 306 322 506 606 413S980 195 1217 338S1512 406 1620 356" stroke="#fff8fc" stroke-width=".65" opacity="0.588" fill="none"/><path d="M-100 475C210 320 322 520 606 427S980 209 1217 352S1512 420 1620 370" stroke="#f9f1f6" stroke-width="1.2" opacity="0.58" fill="none"/><path d="M-100 489C210 334 322 534 606 441S980 223 1217 366S1512 434 1620 384" stroke="#fff8fc" stroke-width=".65" opacity="0.572" fill="none"/><path d="M-100 503C210 348 322 548 606 455S980 237 1217 380S1512 448 1620 398" stroke="#fff8fc" stroke-width=".65" opacity="0.564" fill="none"/><path d="M-100 517C210 362 322 562 606 469S980 251 1217 394S1512 462 1620 412" stroke="#fff8fc" stroke-width=".65" opacity="0.5559999999999999" fill="none"/><path d="M-100 531C210 376 322 576 606 483S980 265 1217 408S1512 476 1620 426" stroke="#fff8fc" stroke-width=".65" opacity="0.5479999999999999" fill="none"/><path d="M-100 545C210 390 322 590 606 497S980 279 1217 422S1512 490 1620 440" stroke="#f9f1f6" stroke-width="1.2" opacity="0.5399999999999999" fill="none"/><path d="M-100 559C210 404 322 604 606 511S980 293 1217 436S1512 504 1620 454" stroke="#fff8fc" stroke-width=".65" opacity="0.5319999999999999" fill="none"/><path d="M-100 573C210 418 322 618 606 525S980 307 1217 450S1512 518 1620 468" stroke="#fff8fc" stroke-width=".65" opacity="0.524" fill="none"/><path d="M-100 587C210 432 322 632 606 539S980 321 1217 464S1512 532 1620 482" stroke="#fff8fc" stroke-width=".65" opacity="0.516" fill="none"/><path d="M-100 601C210 446 322 646 606 553S980 335 1217 478S1512 546 1620 496" stroke="#fff8fc" stroke-width=".65" opacity="0.508" fill="none"/><path d="M-100 615C210 460 322 660 606 567S980 349 1217 492S1512 560 1620 510" stroke="#f9f1f6" stroke-width="1.2" opacity="0.49999999999999994" fill="none"/><path d="M-100 629C210 474 322 674 606 581S980 363 1217 506S1512 574 1620 524" stroke="#fff8fc" stroke-width=".65" opacity="0.49199999999999994" fill="none"/><path d="M-100 643C210 488 322 688 606 595S980 377 1217 520S1512 588 1620 538" stroke="#fff8fc" stroke-width=".65" opacity="0.484" fill="none"/><path d="M-100 657C210 502 322 702 606 609S980 391 1217 534S1512 602 1620 552" stroke="#fff8fc" stroke-width=".65" opacity="0.476" fill="none"/><path d="M-100 671C210 516 322 716 606 623S980 405 1217 548S1512 616 1620 566" stroke="#fff8fc" stroke-width=".65" opacity="0.46799999999999997" fill="none"/><path d="M-100 685C210 530 322 730 606 637S980 419 1217 562S1512 630 1620 580" stroke="#f9f1f6" stroke-width="1.2" opacity="0.45999999999999996" fill="none"/><path d="M-100 699C210 544 322 744 606 651S980 433 1217 576S1512 644 1620 594" stroke="#fff8fc" stroke-width=".65" opacity="0.45199999999999996" fill="none"/><path d="M-100 713C210 558 322 758 606 665S980 447 1217 590S1512 658 1620 608" stroke="#fff8fc" stroke-width=".65" opacity="0.44399999999999995" fill="none"/><path d="M-100 727C210 572 322 772 606 679S980 461 1217 604S1512 672 1620 622" stroke="#fff8fc" stroke-width=".65" opacity="0.43599999999999994" fill="none"/><path d="M-100 741C210 586 322 786 606 693S980 475 1217 618S1512 686 1620 636" stroke="#fff8fc" stroke-width=".65" opacity="0.42799999999999994" fill="none"/><path d="M-100 755C210 600 322 800 606 707S980 489 1217 632S1512 700 1620 650" stroke="#f9f1f6" stroke-width="1.2" opacity="0.41999999999999993" fill="none"/><path d="M-100 769C210 614 322 814 606 721S980 503 1217 646S1512 714 1620 664" stroke="#fff8fc" stroke-width=".65" opacity="0.4119999999999999" fill="none"/><path d="M-100 783C210 628 322 828 606 735S980 517 1217 660S1512 728 1620 678" stroke="#fff8fc" stroke-width=".65" opacity="0.40399999999999997" fill="none"/><path d="M-100 797C210 642 322 842 606 749S980 531 1217 674S1512 742 1620 692" stroke="#fff8fc" stroke-width=".65" opacity="0.39599999999999996" fill="none"/><g transform="translate(840 118) scale(0.8543046357615894)"><path d="M22 31 195 0 150 141H302L250 282H165L178 181H136L103 282H0Z" fill="url(#dream-logo)" /></g><circle cx="193" cy="131" r="2" fill="#fffdfa"/><path d="M193 119V143M181 131H205" stroke="#fffdfa" stroke-width=".8" opacity=".75"/></svg>