<svg xmlns="http://www.w3.org/2000/svg" width="1500" height="500" viewBox="0 0 1500 500" role="img" aria-labelledby="title desc"><title id="title">Shared direction</title><desc id="desc">Independent paths align into a common direction while every individual remains visible.</desc><rect x="0" y="0" width="1500" height="500" fill="#191919" /><path d="M380 55C650 55 650 186 900 186H1310" fill="none" stroke="#f4f0e9" stroke-width="5" /><circle cx="380" cy="55" r="8" fill="#f4f0e9"/><path d="M380 104C650 104 650 202 900 202H1310" fill="none" stroke="#f2a8cd" stroke-width="5" /><circle cx="380" cy="104" r="8" fill="#f2a8cd"/><path d="M380 153C650 153 650 218 900 218H1310" fill="none" stroke="#f2a8cd" stroke-width="5" /><circle cx="380" cy="153" r="8" fill="#f2a8cd"/><path d="M380 202C650 202 650 234 900 234H1310" fill="none" stroke="#f4f0e9" stroke-width="5" /><circle cx="380" cy="202" r="8" fill="#f4f0e9"/><path d="M380 251C650 251 650 250 900 250H1310" fill="none" stroke="#f2a8cd" stroke-width="5" /><circle cx="380" cy="251" r="8" fill="#f2a8cd"/><path d="M380 300C650 300 650 266 900 266H1310" fill="none" stroke="#f2a8cd" stroke-width="5" /><circle cx="380" cy="300" r="8" fill="#f2a8cd"/><path d="M380 349C650 349 650 282 900 282H1310" fill="none" stroke="#f4f0e9" stroke-width="5" /><circle cx="380" cy="349" r="8" fill="#f4f0e9"/><path d="M380 398C650 398 650 298 900 298H1310" fill="none" stroke="#f2a8cd" stroke-width="5" /><circle cx="380" cy="398" r="8" fill="#f2a8cd"/><path d="M380 447C650 447 650 314 900 314H1310" fill="none" stroke="#f2a8cd" stroke-width="5" /><circle cx="380" cy="447" r="8" fill="#f2a8cd"/><path d="M1120 149V350" fill="none" stroke="#f8d4e5" stroke-width="2" /><rect x="1106" y="142" width="28" height="10" fill="#f8d4e5" /><rect x="1106" y="348" width="28" height="10" fill="#f8d4e5" /></svg>